<?xml version="1.0" encoding="utf-8"?>
<!-- Generator: Adobe Illustrator 16.0.0, SVG Export Plug-In . SVG Version: 6.00 Build 0)  -->
<!DOCTYPE svg PUBLIC "-//W3C//DTD SVG 1.1//EN" "http://www.w3.org/Graphics/SVG/1.1/DTD/svg11.dtd">
<svg version="1.1" id="圖層_1" xmlns="http://www.w3.org/2000/svg" xmlns:xlink="http://www.w3.org/1999/xlink" x="0px" y="0px"
	 width="172.259px" height="205.51px" viewBox="0 0 172.259 205.51" enable-background="new 0 0 172.259 205.51"
	 xml:space="preserve">
<g>
	<path fill="#E6AF2E" d="M156.314,38.677l-1.109,8.137l-6.858,50.211l-11.23,82.227l-2.813,20.586
		c-0.442,3.25-3.219,5.674-6.499,5.673H52.908c-3.274,0.001-6.049-2.412-6.5-5.655l-2.859-20.604L32.126,97.025l-6.978-50.248
		l-1.123-8.083c-0.499-3.589,2.004-6.901,5.591-7.401c0.3-0.041,0.603-0.063,0.904-0.063h119.295
		c3.624,0.001,6.561,2.939,6.56,6.564C156.375,38.089,156.354,38.384,156.314,38.677z"/>
	<path opacity="0.1" enable-background="new    " d="M148.859,19.74v4.93c0,3.623-2.938,6.561-6.561,6.561H38.425
		c-3.624,0-6.56-2.938-6.56-6.561v-4.916C70.775,23.458,109.949,23.455,148.859,19.74z"/>
	<path fill="#F5D061" d="M165.699,42.123c-50.076,5.466-100.599,5.466-150.674,0c-3.622,0-6.559-2.938-6.559-6.559l0,0v-8.668
		c0-3.622,2.937-6.559,6.559-6.559l0,0c50.035,6.151,100.637,6.151,150.674,0c3.622,0,6.56,2.937,6.56,6.559v8.668
		C172.259,39.185,169.321,42.123,165.699,42.123z"/>
	<path fill="#F5D061" d="M140.2,176.261H39.348c-1.869,0-3.462-1.36-3.756-3.207l-10.895-68.64c-0.33-2.075,1.086-4.023,3.159-4.353
		c0.198-0.032,0.396-0.048,0.596-0.048h123.369c2.1,0,3.803,1.703,3.803,3.803c0,0.214-0.017,0.427-0.054,0.636l-11.62,68.641
		C143.639,174.923,142.056,176.261,140.2,176.261z"/>
	<path fill="#F5D061" d="M37.144,11.523h103.874c3.625,0,6.562,2.937,6.562,6.561v8.666c0,3.622-2.937,6.559-6.562,6.559H37.144
		c-3.623,0-6.56-2.937-6.56-6.559v-8.666C30.584,14.459,33.521,11.523,37.144,11.523z"/>
	<polyline fill="none" stroke="#000000" stroke-miterlimit="10" points="59.097,156.684 90.362,137.653 122.255,156.684 	"/>
	<g>
		<polygon fill="#F5F5F5" points="32.933,67.177 62.697,73.876 87.998,67.177 		"/>
		<polygon fill="#282F44" points="51.904,67.177 52.766,71.643 63.209,73.876 70.137,72.249 70.137,67.177 		"/>
	</g>
	<g>
		<polygon fill="#F5F5F5" points="90.165,67.177 119.93,73.876 145.23,67.177 		"/>
		<polygon fill="#282F44" points="109.137,67.177 109.998,71.643 120.441,73.876 127.368,72.249 127.368,67.177 		"/>
	</g>
</g>
</svg>
