<?xml version="1.0" encoding="utf-8"?>
<!-- Generator: Adobe Illustrator 16.0.0, SVG Export Plug-In . SVG Version: 6.00 Build 0)  -->
<!DOCTYPE svg PUBLIC "-//W3C//DTD SVG 1.1//EN" "http://www.w3.org/Graphics/SVG/1.1/DTD/svg11.dtd">
<svg version="1.1" id="圖層_1" xmlns="http://www.w3.org/2000/svg" xmlns:xlink="http://www.w3.org/1999/xlink" x="0px" y="0px"
	 width="190.435px" height="253.914px" viewBox="0 0 190.435 253.914" enable-background="new 0 0 190.435 253.914"
	 xml:space="preserve">
<g>
	<path fill="none" stroke="#3F3D56" stroke-miterlimit="10" d="M137.9,18.351c-2.996,0.169-5.639,2.017-6.827,4.773
		c-1.707,4.127,0.491,8.974,3.791,11.983c3.3,3.009,7.539,4.729,11.391,6.99c5.172,3.037,9.82,7.253,12.409,12.664
		c2.588,5.411,2.863,12.114-0.179,17.284c-2.824,4.798-7.959,7.67-12.856,10.319"/>
	<path fill="none" stroke="#3F3D56" stroke-miterlimit="10" d="M169.774,114.436c-2.76-1.18-5.949-0.699-8.238,1.242
		c-3.363,2.938-3.548,8.258-1.929,12.42c1.618,4.163,4.651,7.587,7.097,11.324c3.284,5.02,5.576,10.861,5.489,16.859
		c-0.086,5.998-2.818,12.126-7.841,15.404c-4.663,3.043-10.539,3.334-16.103,3.531"/>
	<path d="M152.755,102.274l-0.947,6.951l-5.859,42.896l-9.595,70.247l-2.402,17.588c-0.379,2.777-2.75,4.847-5.553,4.846H64.414
		c-2.798,0.001-5.167-2.062-5.553-4.832l-2.443-17.602l-9.757-70.247l-5.963-42.926l-0.958-6.906
		c-0.428-3.064,1.711-5.896,4.774-6.323c0.257-0.035,0.516-0.053,0.774-0.053h101.914c3.096,0,5.604,2.512,5.604,5.607
		C152.807,101.773,152.789,102.025,152.755,102.274z"/>
	<path fill="#2F2E41" d="M52.041,77.301h88.741c3.095,0,5.604,2.509,5.604,5.604v7.402c0,3.096-2.509,5.605-5.604,5.605H52.041
		c-3.096,0-5.604-2.51-5.604-5.605v-7.402C46.437,79.81,48.945,77.301,52.041,77.301z"/>
	<path opacity="0.1" enable-background="new    " d="M146.386,86.096v4.211c0,3.096-2.509,5.605-5.604,5.605H52.041
		c-3.096,0-5.604-2.51-5.604-5.605v-4.2C79.678,89.274,113.146,89.271,146.386,86.096z"/>
	<circle fill="#2F2E41" cx="69.7" cy="133.996" r="15.165"/>
	<circle fill="#2F2E41" cx="123.467" cy="133.996" r="15.165"/>
	<circle fill="#FFFFFF" cx="69.012" cy="133.996" r="4.135"/>
	<circle fill="#FFFFFF" cx="75.216" cy="126.069" r="1.723"/>
	<circle fill="#FFFFFF" cx="123.467" cy="133.996" r="4.135"/>
	<circle fill="#FFFFFF" cx="129.67" cy="126.069" r="1.723"/>
	<path opacity="0.1" enable-background="new    " d="M152.437,99.531L152.437,99.531c-0.001-0.005-0.003-0.009-0.004-0.013
		c-0.148-0.385-0.338-0.754-0.566-1.098l-0.001-0.001c-0.067-0.102-0.139-0.199-0.213-0.297c-0.024-0.032-0.05-0.063-0.075-0.096
		c-0.215-0.27-0.453-0.519-0.715-0.745c-0.058-0.051-0.115-0.1-0.177-0.148c-0.067-0.054-0.135-0.106-0.205-0.157
		c-0.088-0.063-0.178-0.124-0.27-0.183c-0.072-0.046-0.146-0.091-0.219-0.134c-0.115-0.066-0.232-0.13-0.353-0.188
		c-0.058-0.027-0.115-0.053-0.174-0.079c-0.114-0.051-0.23-0.098-0.35-0.141c-0.048-0.018-0.094-0.036-0.143-0.052
		c-0.164-0.056-0.332-0.103-0.503-0.143c-0.042-0.01-0.085-0.017-0.127-0.025c-0.14-0.028-0.282-0.053-0.425-0.07
		c-0.052-0.007-0.104-0.014-0.156-0.019c-0.185-0.019-0.37-0.03-0.56-0.03l0,0H45.289c-3.104,0.01-5.61,2.533-5.601,5.637
		c0.001,0.247,0.018,0.493,0.051,0.737l0.162,1.165l0.797,5.743h0.001l5.962,42.926l0,0l7.826,56.348l4.375,31.5
		c0.385,2.771,2.754,4.833,5.551,4.833h3.036c-0.15-0.392-0.256-0.799-0.315-1.214l-2.947-21.22h72.167l9.595-70.247H54.431
		l-5.867-42.239c34.368,2.787,68.914,2.568,103.244-0.656l0.947-6.951C152.881,101.347,152.771,100.404,152.437,99.531z"/>
	<path fill="#2F2E41" d="M160.771,105.218c-42.78,4.669-85.941,4.669-128.721,0c-3.095,0-5.604-2.51-5.604-5.604l0,0v-7.404
		c0-3.094,2.509-5.604,5.604-5.604l0,0c42.746,5.256,85.976,5.256,128.721,0c3.096,0,5.604,2.51,5.604,5.604v7.404
		C166.376,102.708,163.867,105.218,160.771,105.218z"/>
	<path fill="#2F2E41" d="M138.987,219.814H52.83c-1.598,0-2.959-1.161-3.209-2.739l-9.309-58.642
		c-0.281-1.771,0.928-3.437,2.699-3.718c0.169-0.026,0.339-0.041,0.51-0.041h105.395c1.795,0,3.249,1.455,3.249,3.25
		c0,0.182-0.015,0.363-0.045,0.543l-9.929,58.64C141.927,218.67,140.573,219.814,138.987,219.814z"/>
	<path d="M129.185,178.015c1.247,0.228,2.073,1.424,1.846,2.671c-0.08,0.436-0.283,0.839-0.588,1.162
		c-5.466,5.826-18.721,17.977-34.203,17.977c-15.483,0-28.737-12.15-34.204-17.977c-0.869-0.924-0.825-2.377,0.098-3.246
		c0.322-0.304,0.726-0.508,1.161-0.587C85.075,174.007,107.403,174.007,129.185,178.015L129.185,178.015z"/>
	<path fill="#FFFFFF" d="M113.471,181.649c1.253,0.199,2.105,1.377,1.906,2.63c-0.077,0.484-0.308,0.932-0.658,1.275
		c-3.701,3.609-10.592,9.052-18.479,9.052c-7.889,0-14.779-5.442-18.48-9.052c-0.904-0.89-0.917-2.343-0.028-3.247
		c0.345-0.35,0.792-0.581,1.276-0.658C90.417,179.753,102.062,179.753,113.471,181.649L113.471,181.649z"/>
	<g>
		<ellipse fill="#231100" cx="142.746" cy="18.259" rx="5.751" ry="3.913"/>
		<ellipse fill="#681409" cx="142.676" cy="18.619" rx="5.805" ry="3.602"/>
		<g>
			<defs>
				<ellipse id="SVGID_1_" cx="142.676" cy="18.619" rx="5.805" ry="3.602"/>
			</defs>
			<clipPath id="SVGID_2_">
				<use xlink:href="#SVGID_1_"  overflow="visible"/>
			</clipPath>
			<g clip-path="url(#SVGID_2_)">
				<path fill="#86433A" d="M136.445,16.4c0,0,0.195,0.014,0.538,0.038c0.356,0.03,0.824,0.071,1.4,0.156
					c0.285,0.04,0.593,0.08,0.92,0.144s0.664,0.109,1.021,0.2c0.706,0.151,1.459,0.364,2.195,0.627l0.55,0.229l0.271,0.114
					l0.133,0.057c-0.058-0.009,0.055,0.028,0.073,0.04c0.316,0.13,0.667,0.31,0.936,0.392c0.27,0.076,0.538,0.191,0.821,0.214
					c0.28,0.058,0.548,0.066,0.801,0.062c0.506-0.012,0.938-0.117,1.239-0.205c0.302-0.089,0.481-0.127,0.481-0.127
					s-0.151,0.094-0.407,0.282c-0.255,0.186-0.643,0.448-1.181,0.661c-0.271,0.104-0.573,0.204-0.906,0.255
					c-0.33,0.086-0.7,0.082-1.095,0.1c-0.395,0.011-0.702-0.036-1.069-0.051c-0.066-0.009-0.039,0.008-0.183-0.022l-0.124-0.005
					l-0.245-0.011l-0.485-0.021c-1.319-0.001-2.667,0.231-3.654,0.441c-0.492,0.101-0.911,0.213-1.175,0.285
					c-0.278,0.08-0.437,0.125-0.437,0.125L136.445,16.4z"/>
			</g>
		</g>
	</g>
	<g>
		
			<ellipse transform="matrix(0.1677 0.9858 -0.9858 0.1677 157.9185 -114.0224)" fill="#231100" cx="146.487" cy="36.514" rx="3.913" ry="5.75"/>
		
			<ellipse transform="matrix(0.1677 0.9858 -0.9858 0.1677 158.2723 -113.7098)" fill="#681409" cx="146.479" cy="36.879" rx="3.602" ry="5.804"/>
		<g>
			<defs>
				
					<ellipse id="SVGID_3_" transform="matrix(0.1677 0.9858 -0.9858 0.1677 158.2723 -113.7098)" cx="146.479" cy="36.879" rx="3.602" ry="5.804"/>
			</defs>
			<clipPath id="SVGID_4_">
				<use xlink:href="#SVGID_3_"  overflow="visible"/>
			</clipPath>
			<g clip-path="url(#SVGID_4_)">
				<path fill="#86433A" d="M139.965,35.737c0,0,0.194-0.019,0.536-0.053c0.356-0.03,0.825-0.068,1.406-0.081
					c0.288-0.009,0.599-0.021,0.931-0.013c0.334,0.008,0.674-0.004,1.041,0.026c0.721,0.031,1.498,0.115,2.269,0.25L146.729,36
					l0.285,0.067l0.141,0.034c-0.06,0,0.059,0.019,0.078,0.027c0.334,0.076,0.711,0.193,0.988,0.229
					c0.278,0.029,0.563,0.098,0.846,0.073c0.286,0.01,0.551-0.026,0.8-0.074c0.496-0.096,0.904-0.271,1.188-0.41
					c0.282-0.138,0.453-0.206,0.453-0.206s-0.134,0.118-0.354,0.346c-0.22,0.226-0.558,0.55-1.053,0.849
					c-0.249,0.149-0.53,0.297-0.851,0.404c-0.311,0.141-0.677,0.198-1.063,0.282c-0.388,0.077-0.698,0.083-1.063,0.129
					c-0.067,0.002-0.037,0.014-0.185,0.009l-0.122,0.016l-0.244,0.031l-0.482,0.06c-1.3,0.22-2.59,0.674-3.528,1.047
					c-0.468,0.181-0.862,0.363-1.109,0.479c-0.261,0.125-0.41,0.196-0.41,0.196L139.965,35.737z"/>
			</g>
		</g>
	</g>
	<g>
		
			<ellipse transform="matrix(0.1677 0.9858 -0.9858 0.1677 189.3498 -117.535)" fill="#231100" cx="164.283" cy="53.372" rx="3.913" ry="5.75"/>
		
			<ellipse transform="matrix(0.1677 0.9858 -0.9858 0.1677 189.7045 -117.2216)" fill="#681409" cx="164.275" cy="53.739" rx="3.602" ry="5.805"/>
		<g>
			<defs>
				
					<ellipse id="SVGID_5_" transform="matrix(0.1677 0.9858 -0.9858 0.1677 189.7045 -117.2216)" cx="164.275" cy="53.739" rx="3.602" ry="5.805"/>
			</defs>
			<clipPath id="SVGID_6_">
				<use xlink:href="#SVGID_5_"  overflow="visible"/>
			</clipPath>
			<g clip-path="url(#SVGID_6_)">
				<path fill="#86433A" d="M157.76,52.596c0,0,0.195-0.019,0.537-0.053c0.356-0.03,0.825-0.068,1.406-0.081
					c0.288-0.009,0.599-0.021,0.932-0.013c0.333,0.008,0.673-0.004,1.04,0.026c0.721,0.031,1.498,0.115,2.269,0.25l0.581,0.133
					l0.285,0.067l0.141,0.034c-0.06,0,0.059,0.019,0.078,0.027c0.334,0.076,0.71,0.193,0.988,0.229
					c0.278,0.029,0.563,0.098,0.846,0.073c0.286,0.01,0.552-0.026,0.8-0.074c0.496-0.096,0.904-0.271,1.188-0.41
					c0.282-0.138,0.453-0.206,0.453-0.206s-0.134,0.118-0.354,0.346c-0.22,0.226-0.558,0.55-1.053,0.849
					c-0.249,0.149-0.53,0.297-0.851,0.404c-0.311,0.141-0.677,0.198-1.063,0.282c-0.387,0.077-0.698,0.083-1.063,0.129
					c-0.067,0.002-0.037,0.014-0.185,0.009l-0.122,0.016l-0.244,0.031l-0.482,0.06c-1.3,0.22-2.59,0.674-3.528,1.047
					c-0.468,0.181-0.862,0.363-1.109,0.479c-0.261,0.125-0.409,0.196-0.409,0.196L157.76,52.596z"/>
			</g>
		</g>
	</g>
	<g>
		
			<ellipse transform="matrix(0.1676 0.9859 -0.9859 0.1676 255.4942 -76.5602)" fill="#231100" cx="173.085" cy="113.021" rx="3.312" ry="4.867"/>
		
			<ellipse transform="matrix(0.1677 0.9858 -0.9858 0.1677 255.78 -76.3018)" fill="#681409" cx="173.079" cy="113.331" rx="3.049" ry="4.914"/>
		<g>
			<defs>
				
					<ellipse id="SVGID_7_" transform="matrix(0.1677 0.9858 -0.9858 0.1677 255.78 -76.3018)" cx="173.079" cy="113.331" rx="3.049" ry="4.914"/>
			</defs>
			<clipPath id="SVGID_8_">
				<use xlink:href="#SVGID_7_"  overflow="visible"/>
			</clipPath>
			<g clip-path="url(#SVGID_8_)">
				<path fill="#86433A" d="M167.481,112.069c0,0,0.168-0.012,0.464-0.034c0.31-0.019,0.712-0.04,1.213-0.038
					c0.992-0.001,2.314,0.043,3.644,0.323l0.5,0.127l0.244,0.064l0.121,0.032c-0.065,0,0.044,0.018,0.059,0.026
					c0.28,0.073,0.604,0.183,0.83,0.221c0.228,0.034,0.462,0.102,0.699,0.09c0.239,0.017,0.463-0.005,0.673-0.038
					c0.421-0.066,0.771-0.203,1.016-0.313s0.392-0.163,0.392-0.163s-0.11,0.104-0.292,0.304c-0.182,0.198-0.463,0.483-0.882,0.752
					c-0.211,0.134-0.45,0.268-0.724,0.367c-0.266,0.128-0.581,0.187-0.916,0.266c-0.337,0.074-0.595,0.088-0.906,0.137
					c-0.06,0.003-0.023,0.015-0.163,0.01l-0.103,0.017l-0.203,0.033l-0.4,0.066c-1.082,0.225-2.154,0.646-2.933,0.988
					c-0.387,0.167-0.715,0.331-0.917,0.436c-0.214,0.113-0.337,0.177-0.337,0.177L167.481,112.069z"/>
			</g>
		</g>
	</g>
	<g>
		
			<ellipse transform="matrix(0.4779 -0.8784 0.8784 0.4779 -50.0009 229.6368)" fill="#231100" cx="168.178" cy="156.881" rx="3.312" ry="4.867"/>
		
			<ellipse transform="matrix(0.4781 -0.8783 0.8783 0.4781 -49.7026 229.6422)" fill="#681409" cx="168.375" cy="156.642" rx="3.049" ry="4.914"/>
		<g>
			<defs>
				
					<ellipse id="SVGID_9_" transform="matrix(0.4781 -0.8783 0.8783 0.4781 -49.7026 229.6422)" cx="168.375" cy="156.642" rx="3.049" ry="4.914"/>
			</defs>
			<clipPath id="SVGID_10_">
				<use xlink:href="#SVGID_9_"  overflow="visible"/>
			</clipPath>
			<g clip-path="url(#SVGID_10_)">
				<path fill="#86433A" d="M171.991,161.096c0,0-0.14-0.095-0.386-0.261c-0.255-0.177-0.584-0.409-0.977-0.721
					c-0.779-0.612-1.791-1.466-2.662-2.509l-0.313-0.409l-0.152-0.201l-0.074-0.1c0.052,0.041-0.024-0.042-0.03-0.057
					c-0.175-0.23-0.361-0.517-0.516-0.688c-0.158-0.167-0.301-0.365-0.494-0.502c-0.178-0.162-0.366-0.283-0.552-0.388
					c-0.371-0.208-0.731-0.317-0.992-0.382c-0.26-0.072-0.408-0.113-0.408-0.113s0.151-0.021,0.418-0.059
					c0.265-0.043,0.662-0.094,1.157-0.046c0.248,0.025,0.52,0.067,0.796,0.159c0.288,0.063,0.571,0.213,0.884,0.356
					c0.311,0.15,0.522,0.299,0.797,0.453c0.049,0.035,0.027,0.002,0.135,0.093l0.092,0.051l0.18,0.1l0.355,0.195
					c0.989,0.493,2.092,0.826,2.914,1.039c0.407,0.108,0.768,0.182,0.99,0.225c0.238,0.044,0.374,0.069,0.374,0.069L171.991,161.096
					z"/>
			</g>
		</g>
	</g>
	<g>
		
			<ellipse transform="matrix(-0.4779 0.8784 -0.8784 -0.4779 402.3663 83.4745)" fill="#231100" cx="176.376" cy="161.313" rx="3.312" ry="4.867"/>
		
			<ellipse transform="matrix(-0.4781 0.8783 -0.8783 -0.4781 402.3001 84.0478)" fill="#681409" cx="176.178" cy="161.553" rx="3.049" ry="4.913"/>
		<g>
			<defs>
				
					<ellipse id="SVGID_11_" transform="matrix(-0.4781 0.8783 -0.8783 -0.4781 402.3001 84.0478)" cx="176.178" cy="161.553" rx="3.049" ry="4.913"/>
			</defs>
			<clipPath id="SVGID_12_">
				<use xlink:href="#SVGID_11_"  overflow="visible"/>
			</clipPath>
			<g clip-path="url(#SVGID_12_)">
				<path fill="#86433A" d="M172.563,157.099c0,0,0.141,0.095,0.385,0.261c0.256,0.177,0.585,0.409,0.978,0.721
					c0.779,0.612,1.79,1.465,2.662,2.508l0.313,0.409l0.152,0.201l0.074,0.101c-0.051-0.041,0.024,0.041,0.03,0.056
					c0.175,0.231,0.361,0.518,0.516,0.688c0.158,0.168,0.301,0.366,0.494,0.503c0.178,0.162,0.366,0.282,0.552,0.387
					c0.371,0.208,0.732,0.317,0.992,0.383c0.26,0.063,0.408,0.113,0.408,0.113s-0.15,0.013-0.418,0.058
					c-0.265,0.044-0.662,0.094-1.157,0.047c-0.248-0.025-0.52-0.068-0.796-0.16c-0.287-0.063-0.571-0.213-0.884-0.356
					c-0.311-0.15-0.522-0.298-0.797-0.453c-0.049-0.034-0.028-0.003-0.135-0.093l-0.091-0.05l-0.181-0.1l-0.355-0.196
					c-0.989-0.492-2.092-0.825-2.915-1.038c-0.406-0.108-0.767-0.183-0.989-0.225c-0.238-0.044-0.374-0.069-0.374-0.069
					L172.563,157.099z"/>
			</g>
		</g>
	</g>
	<g>
		
			<ellipse transform="matrix(-0.4041 -0.9147 0.9147 -0.4041 99.4666 342.0463)" fill="#231100" cx="161.143" cy="138.625" rx="3.313" ry="4.867"/>
		
			<ellipse transform="matrix(-0.4041 -0.9147 0.9147 -0.4041 99.6376 341.5563)" fill="#681409" cx="161.074" cy="138.323" rx="3.049" ry="4.914"/>
		<g>
			<defs>
				
					<ellipse id="SVGID_13_" transform="matrix(-0.4041 -0.9147 0.9147 -0.4041 99.6376 341.5563)" cx="161.074" cy="138.323" rx="3.049" ry="4.914"/>
			</defs>
			<clipPath id="SVGID_14_">
				<use xlink:href="#SVGID_13_"  overflow="visible"/>
			</clipPath>
			<g clip-path="url(#SVGID_14_)">
				<path fill="#86433A" d="M166.809,138.177c0,0-0.16,0.053-0.441,0.146c-0.296,0.095-0.681,0.401-1.167,0.522
					c-0.961,0.242-2.254,0.764-3.612,0.764h-0.516h-0.252h-0.125c0.064,0-0.048-0.196-0.063-0.2
					c-0.29-0.003-0.631-0.124-0.859-0.106c-0.229,0.023-0.474-0.033-0.7,0.037c-0.236,0.043-0.447,0.095-0.644,0.178
					c-0.391,0.167-0.697,0.374-0.908,0.541c-0.209,0.166-0.339,0.248-0.339,0.248s0.082-0.131,0.209-0.369
					c0.128-0.236,0.33-0.584,0.67-0.947c0.172-0.182,0.371-0.37,0.612-0.533c0.226-0.189,0.518-0.324,0.822-0.483
					c0.308-0.154,0.555-0.231,0.844-0.354c0.059-0.018,0.02-0.021,0.157-0.051l0.095-0.041l0.189-0.082l0.372-0.162
					c0.994-0.482,1.931-1.153,2.602-1.675c0.334-0.256,0.612-0.496,0.782-0.646c0.18-0.162,0.283-0.255,0.283-0.255L166.809,138.177
					z"/>
			</g>
		</g>
	</g>
	<g>
		
			<ellipse transform="matrix(0.4041 0.9147 -0.9147 0.4041 224.2205 -75.1018)" fill="#231100" cx="169.75" cy="134.534" rx="3.312" ry="4.867"/>
		
			<ellipse transform="matrix(0.404 0.9147 -0.9147 0.404 224.5446 -74.9825)" fill="#681409" cx="169.818" cy="134.836" rx="3.049" ry="4.914"/>
		<g>
			<defs>
				
					<ellipse id="SVGID_15_" transform="matrix(0.404 0.9147 -0.9147 0.404 224.5446 -74.9825)" cx="169.818" cy="134.836" rx="3.049" ry="4.914"/>
			</defs>
			<clipPath id="SVGID_16_">
				<use xlink:href="#SVGID_15_"  overflow="visible"/>
			</clipPath>
			<g clip-path="url(#SVGID_16_)">
				<path fill="#86433A" d="M164.082,134.983c0,0,0.16-0.053,0.441-0.146c0.297-0.095,0.681-0.371,1.167-0.492
					c0.962-0.244,2.254-0.736,3.612-0.736h0.516l0.252,0.161l0.125,0.081c-0.063,0.016,0.048,0.045,0.063,0.051
					c0.289,0.002,0.63,0.049,0.859,0.03c0.229-0.022,0.473-0.005,0.699-0.074c0.236-0.042,0.448-0.113,0.644-0.196
					c0.392-0.167,0.698-0.384,0.908-0.551c0.216-0.161,0.339-0.252,0.339-0.252s-0.076,0.133-0.209,0.366
					c-0.127,0.236-0.329,0.583-0.67,0.946c-0.171,0.182-0.371,0.37-0.612,0.533c-0.226,0.189-0.518,0.322-0.822,0.482
					c-0.308,0.153-0.555,0.23-0.845,0.354c-0.058,0.017-0.02,0.021-0.156,0.05l-0.095,0.041l-0.188,0.082l-0.372,0.162
					c-0.994,0.483-1.931,1.153-2.602,1.676c-0.334,0.256-0.612,0.496-0.781,0.646c-0.181,0.162-0.283,0.255-0.283,0.255
					L164.082,134.983z"/>
			</g>
		</g>
	</g>
	<g>
		<path fill="none" stroke="#3F3D56" stroke-miterlimit="10" d="M48.36,194.952c-5.563-0.197-11.439-0.487-16.103-3.531
			c-5.022-3.278-7.755-9.406-7.841-15.404c-0.087-5.998,2.205-11.84,5.489-16.859c2.445-3.736,5.479-7.161,7.097-11.324
			c1.619-4.161,1.434-9.481-1.929-12.42c-2.289-1.941-5.479-2.422-8.238-1.242"/>
		<g>
			
				<ellipse transform="matrix(-0.1676 0.9859 -0.9859 -0.1676 158.3462 131.8143)" fill="#231100" cx="23.525" cy="132.756" rx="3.312" ry="4.867"/>
			
				<ellipse transform="matrix(-0.1677 0.9858 -0.9858 -0.1677 158.6594 132.1785)" fill="#681409" cx="23.532" cy="133.066" rx="3.049" ry="4.914"/>
			<g>
				<defs>
					
						<ellipse id="SVGID_17_" transform="matrix(-0.1677 0.9858 -0.9858 -0.1677 158.6594 132.1785)" cx="23.532" cy="133.066" rx="3.049" ry="4.914"/>
				</defs>
				<clipPath id="SVGID_18_">
					<use xlink:href="#SVGID_17_"  overflow="visible"/>
				</clipPath>
				<g clip-path="url(#SVGID_18_)">
					<path fill="#86433A" d="M28.05,135.655c0,0-0.123-0.064-0.336-0.178c-0.202-0.104-0.53-0.269-0.917-0.435
						c-0.778-0.342-1.851-0.763-2.933-0.987l-0.4-0.066l-0.203-0.033l-0.103-0.017c-0.14,0.005-0.104-0.008-0.164-0.011
						c-0.311-0.048-0.569-0.063-0.906-0.137c-0.334-0.08-0.65-0.138-0.916-0.266c-0.273-0.1-0.513-0.233-0.724-0.367
						c-0.419-0.27-0.7-0.555-0.881-0.753c-0.182-0.2-0.292-0.304-0.292-0.304s0.147,0.053,0.391,0.163
						c0.245,0.11,0.596,0.247,1.016,0.313c0.21,0.032,0.434,0.055,0.673,0.037c0.237,0.013,0.472-0.056,0.699-0.089
						c0.227-0.039,0.55-0.148,0.831-0.222c0.014-0.008,0.125-0.025,0.058-0.025l0.121-0.032l0.245-0.064l0.5-0.128
						c1.33-0.28,2.652-0.325,3.644-0.323c0.501-0.002,0.903,0.019,1.214,0.038c0.295,0.021,0.464,0.033,0.464,0.033L28.05,135.655z"
						/>
				</g>
			</g>
		</g>
		<g>
			
				<ellipse transform="matrix(-0.4781 -0.8783 0.8783 -0.4781 -113.0998 286.0241)" fill="#231100" cx="28.432" cy="176.616" rx="3.312" ry="4.867"/>
			
				<ellipse transform="matrix(-0.4781 -0.8783 0.8783 -0.4781 -113.1812 285.4973)" fill="#681409" cx="28.235" cy="176.376" rx="3.049" ry="4.914"/>
			<g>
				<defs>
					
						<ellipse id="SVGID_19_" transform="matrix(-0.4781 -0.8783 0.8783 -0.4781 -113.1812 285.4973)" cx="28.235" cy="176.376" rx="3.049" ry="4.914"/>
				</defs>
				<clipPath id="SVGID_20_">
					<use xlink:href="#SVGID_19_"  overflow="visible"/>
				</clipPath>
				<g clip-path="url(#SVGID_20_)">
					<path fill="#86433A" d="M23.084,177.137c0,0,0.136-0.025,0.374-0.069c0.223-0.043,0.583-0.116,0.99-0.225
						c0.823-0.213,1.925-0.546,2.915-1.039l0.355-0.195l0.18-0.1l0.091-0.051c0.107-0.091,0.086-0.058,0.135-0.093
						c0.274-0.154,0.486-0.303,0.797-0.453c0.312-0.144,0.596-0.293,0.884-0.356c0.276-0.092,0.547-0.134,0.796-0.159
						c0.496-0.048,0.893,0.003,1.158,0.046c0.266,0.037,0.417,0.059,0.417,0.059s-0.148,0.041-0.408,0.113
						c-0.26,0.064-0.621,0.174-0.992,0.382c-0.186,0.104-0.375,0.226-0.552,0.388c-0.194,0.137-0.336,0.335-0.494,0.502
						c-0.154,0.171-0.341,0.457-0.516,0.688c-0.005,0.015-0.082,0.098-0.029,0.057l-0.075,0.1l-0.152,0.201l-0.314,0.409
						c-0.871,1.043-1.882,1.896-2.662,2.509c-0.393,0.312-0.721,0.544-0.977,0.721c-0.245,0.166-0.385,0.261-0.385,0.261
						L23.084,177.137z"/>
				</g>
			</g>
		</g>
		<g>
			
				<ellipse transform="matrix(0.478 0.8784 -0.8784 0.478 169.5923 76.7404)" fill="#231100" cx="20.234" cy="181.048" rx="3.312" ry="4.868"/>
			
				<ellipse transform="matrix(0.4781 0.8783 -0.8783 0.4781 169.8921 76.6721)" fill="#681409" cx="20.432" cy="181.288" rx="3.049" ry="4.913"/>
			<g>
				<defs>
					
						<ellipse id="SVGID_21_" transform="matrix(0.4781 0.8783 -0.8783 0.4781 169.8921 76.6721)" cx="20.432" cy="181.288" rx="3.049" ry="4.913"/>
				</defs>
				<clipPath id="SVGID_22_">
					<use xlink:href="#SVGID_21_"  overflow="visible"/>
				</clipPath>
				<g clip-path="url(#SVGID_22_)">
					<path fill="#86433A" d="M25.583,180.527c0,0-0.136,0.025-0.374,0.069c-0.223,0.043-0.583,0.116-0.99,0.225
						c-0.823,0.213-1.926,0.546-2.916,1.038l-0.355,0.196l-0.181,0.099l-0.091,0.051c-0.106,0.089-0.086,0.058-0.135,0.093
						c-0.274,0.154-0.486,0.302-0.796,0.453c-0.312,0.144-0.596,0.293-0.884,0.356c-0.276,0.092-0.547,0.135-0.796,0.16
						c-0.496,0.047-0.893-0.003-1.158-0.047c-0.267-0.045-0.417-0.058-0.417-0.058s0.148-0.05,0.408-0.113
						c0.26-0.065,0.621-0.175,0.992-0.383c0.186-0.104,0.375-0.225,0.552-0.387c0.193-0.137,0.336-0.335,0.494-0.503
						c0.154-0.171,0.341-0.457,0.516-0.688c0.006-0.015,0.081-0.097,0.03-0.057l0.075-0.1l0.152-0.202l0.313-0.409
						c0.872-1.042,1.883-1.895,2.663-2.507c0.392-0.312,0.721-0.544,0.977-0.721c0.245-0.166,0.385-0.261,0.385-0.261
						L25.583,180.527z"/>
				</g>
			</g>
		</g>
		<g>
			
				<ellipse transform="matrix(0.4042 -0.9147 0.9147 0.4042 -123.716 126.7932)" fill="#231100" cx="35.468" cy="158.36" rx="3.312" ry="4.867"/>
			
				<ellipse transform="matrix(0.404 -0.9147 0.9147 0.404 -123.4038 126.7027)" fill="#681409" cx="35.537" cy="158.058" rx="3.049" ry="4.914"/>
			<g>
				<defs>
					
						<ellipse id="SVGID_23_" transform="matrix(0.404 -0.9147 0.9147 0.404 -123.4038 126.7027)" cx="35.537" cy="158.058" rx="3.049" ry="4.914"/>
				</defs>
				<clipPath id="SVGID_24_">
					<use xlink:href="#SVGID_23_"  overflow="visible"/>
				</clipPath>
				<g clip-path="url(#SVGID_24_)">
					<path fill="#86433A" d="M31.791,154.441c0,0,0.103,0.093,0.283,0.255c0.169,0.15,0.448,0.391,0.782,0.646
						c0.67,0.522,1.607,1.192,2.601,1.676l0.373,0.162l0.189,0.082l0.095,0.041c0.136,0.029,0.099,0.033,0.156,0.051
						c0.29,0.123,0.536,0.2,0.845,0.354c0.305,0.16,0.597,0.294,0.822,0.482c0.241,0.163,0.44,0.352,0.612,0.533
						c0.34,0.363,0.542,0.709,0.67,0.945c0.127,0.238,0.209,0.366,0.209,0.366s-0.13-0.088-0.339-0.254
						c-0.21-0.167-0.517-0.386-0.908-0.553c-0.196-0.083-0.407-0.159-0.644-0.201c-0.226-0.069-0.471-0.062-0.699-0.084
						c-0.229-0.018-0.57,0.009-0.86,0.012c-0.015,0.004-0.126-0.006-0.063,0.01l-0.125-0.178l-0.252-0.178h-0.516
						c-1.357,0-2.65-0.154-3.611-0.397c-0.486-0.121-0.871-0.149-1.167-0.245c-0.281-0.092-0.441-0.1-0.441-0.1L31.791,154.441z"/>
				</g>
			</g>
		</g>
		<g>
			
				<ellipse transform="matrix(-0.4042 0.9147 -0.9147 -0.4042 178.8238 192.0539)" fill="#231100" cx="26.861" cy="154.269" rx="3.312" ry="4.867"/>
			
				<ellipse transform="matrix(-0.404 0.9147 -0.9147 -0.404 179.0099 192.5158)" fill="#681409" cx="26.792" cy="154.571" rx="3.049" ry="4.913"/>
			<g>
				<defs>
					
						<ellipse id="SVGID_25_" transform="matrix(-0.404 0.9147 -0.9147 -0.404 179.0099 192.5158)" cx="26.792" cy="154.571" rx="3.049" ry="4.913"/>
				</defs>
				<clipPath id="SVGID_26_">
					<use xlink:href="#SVGID_25_"  overflow="visible"/>
				</clipPath>
				<g clip-path="url(#SVGID_26_)">
					<path fill="#86433A" d="M30.539,158.188c0,0-0.103-0.093-0.283-0.255c-0.17-0.15-0.448-0.39-0.783-0.646
						c-0.67-0.521-1.607-1.192-2.602-1.676l-0.372-0.162l-0.189-0.082l-0.095-0.041c-0.136-0.029-0.099-0.033-0.156-0.051
						c-0.29-0.123-0.536-0.2-0.845-0.354c-0.305-0.16-0.597-0.294-0.822-0.482c-0.241-0.163-0.44-0.352-0.612-0.533
						c-0.34-0.363-0.542-0.709-0.67-0.945c-0.127-0.238-0.209-0.366-0.209-0.366s0.13,0.088,0.339,0.254
						c0.21,0.167,0.517,0.386,0.908,0.553c0.196,0.083,0.407,0.159,0.644,0.201c0.226,0.069,0.471,0.062,0.699,0.084
						c0.229,0.018,0.57-0.009,0.86-0.012c0.015-0.004,0.126,0.006,0.063-0.01l0.125-0.027l0.252-0.028h0.516
						c1.357,0,2.65,0.359,3.611,0.604c0.486,0.121,0.871,0.252,1.167,0.347c0.281,0.093,0.441,0.152,0.441,0.152L30.539,158.188z"/>
				</g>
			</g>
		</g>
	</g>
	<g>
		
			<ellipse transform="matrix(-0.3944 -0.9189 0.9189 -0.3944 152.2541 181.9513)" fill="#231100" cx="136.079" cy="40.809" rx="3.913" ry="5.75"/>
		
			<ellipse transform="matrix(-0.3945 -0.9189 0.9189 -0.3945 152.4846 181.3791)" fill="#681409" cx="136.001" cy="40.451" rx="3.602" ry="5.804"/>
		<g>
			<defs>
				
					<ellipse id="SVGID_27_" transform="matrix(-0.3945 -0.9189 0.9189 -0.3945 152.4846 181.3791)" cx="136.001" cy="40.451" rx="3.602" ry="5.804"/>
			</defs>
			<clipPath id="SVGID_28_">
				<use xlink:href="#SVGID_27_"  overflow="visible"/>
			</clipPath>
			<g clip-path="url(#SVGID_28_)">
				<path fill="#86433A" d="M142.602,40.032c0,0-0.186,0.064-0.51,0.177c-0.34,0.113-0.785,0.259-1.348,0.409
					c-0.278,0.076-0.577,0.161-0.902,0.231s-0.654,0.162-1.018,0.219c-0.707,0.14-1.483,0.241-2.264,0.29l-0.596,0.128l-0.293,0.123
					h-0.146c0.057,0-0.061-0.126-0.083-0.129c-0.342,0.005-0.735-0.082-1.014-0.051c-0.277,0.037-0.57,0.006-0.839,0.097
					c-0.281,0.058-0.53,0.14-0.761,0.245c-0.46,0.21-0.815,0.47-1.059,0.67c-0.242,0.201-0.392,0.303-0.392,0.303
					s0.103-0.148,0.263-0.422c0.161-0.271,0.414-0.666,0.824-1.074c0.207-0.203,0.446-0.414,0.732-0.593
					c0.27-0.209,0.611-0.351,0.967-0.524c0.358-0.165,0.659-0.245,1.003-0.375c0.064-0.018,0.033-0.022,0.177-0.052l0.115-0.044
					l0.229-0.087l0.455-0.172c1.212-0.52,2.359-1.264,3.185-1.847c0.412-0.286,0.753-0.555,0.967-0.726
					c0.224-0.183,0.352-0.287,0.352-0.287L142.602,40.032z"/>
			</g>
		</g>
	</g>
	<g>
		
			<ellipse transform="matrix(-0.3944 -0.9189 0.9189 -0.3944 162.0079 221.1601)" fill="#231100" cx="153.875" cy="57.2" rx="3.913" ry="5.75"/>
		
			<ellipse transform="matrix(-0.3945 -0.9189 0.9189 -0.3945 162.24 220.5885)" fill="#681409" cx="153.797" cy="56.841" rx="3.602" ry="5.804"/>
		<g>
			<defs>
				
					<ellipse id="SVGID_29_" transform="matrix(-0.3945 -0.9189 0.9189 -0.3945 162.24 220.5885)" cx="153.797" cy="56.841" rx="3.602" ry="5.804"/>
			</defs>
			<clipPath id="SVGID_30_">
				<use xlink:href="#SVGID_29_"  overflow="visible"/>
			</clipPath>
			<g clip-path="url(#SVGID_30_)">
				<path fill="#86433A" d="M160.397,56.424c0,0-0.186,0.064-0.509,0.177c-0.34,0.113-0.787,0.259-1.349,0.409
					c-0.278,0.076-0.577,0.161-0.902,0.231s-0.653,0.162-1.018,0.219c-0.707,0.139-1.483,0.24-2.264,0.289l-0.597-0.067
					l-0.292-0.072h-0.146c0.058,0-0.061,0.07-0.082,0.066c-0.342,0.005-0.735,0.016-1.015,0.046
					c-0.277,0.037-0.57,0.055-0.839,0.146c-0.28,0.058-0.53,0.164-0.76,0.269c-0.46,0.21-0.815,0.481-1.059,0.682
					c-0.242,0.201-0.392,0.309-0.392,0.309s0.102-0.145,0.263-0.418c0.16-0.271,0.413-0.665,0.824-1.073
					c0.207-0.203,0.446-0.413,0.732-0.592c0.269-0.209,0.611-0.351,0.966-0.523c0.358-0.166,0.659-0.245,1.003-0.375
					c0.064-0.018,0.033-0.022,0.177-0.052l0.116-0.044l0.229-0.087l0.454-0.172c1.213-0.519,2.359-1.263,3.185-1.846
					c0.412-0.286,0.753-0.555,0.967-0.726c0.224-0.183,0.352-0.287,0.352-0.287L160.397,56.424z"/>
			</g>
		</g>
	</g>
</g>
</svg>
