<?xml version="1.0" encoding="utf-8"?>
<!-- Generator: Adobe Illustrator 16.0.0, SVG Export Plug-In . SVG Version: 6.00 Build 0)  -->
<!DOCTYPE svg PUBLIC "-//W3C//DTD SVG 1.1//EN" "http://www.w3.org/Graphics/SVG/1.1/DTD/svg11.dtd">
<svg version="1.1" id="圖層_1" xmlns="http://www.w3.org/2000/svg" xmlns:xlink="http://www.w3.org/1999/xlink" x="0px" y="0px"
	 width="118.995px" height="152.115px" viewBox="0 0 118.995 152.115" enable-background="new 0 0 118.995 152.115"
	 xml:space="preserve">
<g>
	<path fill="#231305" d="M105.677,75.301c0,40.168-22.161,72.724-49.497,72.724S6.683,115.469,6.683,75.301S28.844,2.57,56.18,2.57
		S105.677,35.133,105.677,75.301z"/>
	<ellipse fill="#651515" cx="60.727" cy="76.188" rx="45.557" ry="73.414"/>
	<g>
		<defs>
			<ellipse id="SVGID_1_" cx="60.727" cy="76.188" rx="45.557" ry="73.414"/>
		</defs>
		<clipPath id="SVGID_2_">
			<use xlink:href="#SVGID_1_"  overflow="visible"/>
		</clipPath>
		<g clip-path="url(#SVGID_2_)">
			<path fill="#83433A" d="M55.829,152.565c0,0-0.05-0.567-0.145-1.63c-0.086-1.071-0.217-2.62-0.336-4.601
				c-0.134-1.979-0.257-4.381-0.377-7.137c-0.049-1.378-0.101-2.844-0.156-4.39c-0.03-1.546-0.063-3.172-0.098-4.868
				c-0.027-3.394-0.041-7.069,0.056-10.956c0.016-1.943,0.116-3.939,0.197-5.979c0.044-1.02,0.088-2.05,0.133-3.091
				c0.07-1.039,0.141-2.089,0.212-3.147c0.07-1.059,0.143-2.125,0.215-3.2c0.083-1.073,0.203-2.153,0.305-3.24
				c0.215-2.174,0.4-4.375,0.727-6.583c0.544-4.423,1.289-8.897,2.219-13.333l0.748-3.315c0.24-1.106,0.492-2.209,0.829-3.29
				c0.623-2.159,1.244-4.311,1.859-6.444c1.295-4.261,2.353-8.421,2.984-12.56c0.158-1.034,0.315-2.061,0.471-3.077
				c0.111-1.021,0.175-2.037,0.263-3.041c0.227-2.007,0.182-3.979,0.211-5.899c0.043-0.962-0.079-1.903-0.117-2.835
				c-0.075-0.93-0.075-1.854-0.208-2.747c-0.242-1.79-0.428-3.531-0.811-5.167c-0.624-3.302-1.58-6.243-2.517-8.809
				c-0.949-2.566-1.958-4.734-2.785-6.519c-0.845-1.778-1.5-3.181-1.924-4.147c-0.389-0.981-0.596-1.504-0.596-1.504
				s0.222,0.517,0.637,1.486c0.45,0.953,1.144,2.335,2.037,4.09c0.878,1.763,1.949,3.907,2.975,6.46
				c1.013,2.554,2.061,5.492,2.784,8.811c0.432,1.645,0.669,3.398,0.965,5.206c0.159,0.903,0.187,1.837,0.288,2.777
				c0.065,0.943,0.215,1.898,0.199,2.873c0.024,1.946,0.124,3.951-0.048,5.992c-0.062,1.021-0.097,2.057-0.182,3.097
				c-0.129,1.036-0.259,2.082-0.39,3.138c-0.523,4.221-1.504,8.562-2.669,12.808c-0.553,2.14-1.111,4.295-1.671,6.46
				c-0.302,1.068-0.52,2.162-0.726,3.26l-0.646,3.286c-0.795,4.396-1.407,8.829-1.822,13.212c-0.263,2.186-0.385,4.369-0.537,6.522
				c-0.07,1.077-0.16,2.146-0.213,3.209c-0.042,1.065-0.083,2.122-0.124,3.171c-0.041,1.048-0.082,2.087-0.123,3.116
				c-0.016,1.031-0.031,2.052-0.047,3.062c-0.023,2.021-0.068,3.995-0.03,5.92c0.011,3.848,0.126,7.484,0.246,10.84
				c0.08,1.677,0.157,3.284,0.23,4.813c0.097,1.526,0.188,2.975,0.274,4.336c0.195,2.72,0.382,5.09,0.568,7.036
				c0.171,1.947,0.344,3.477,0.455,4.506c0.121,1.036,0.186,1.588,0.186,1.588L55.829,152.565z"/>
		</g>
	</g>
</g>
</svg>
