<?xml version="1.0" encoding="utf-8"?>
<!-- Generator: Adobe Illustrator 16.0.0, SVG Export Plug-In . SVG Version: 6.00 Build 0)  -->
<!DOCTYPE svg PUBLIC "-//W3C//DTD SVG 1.1//EN" "http://www.w3.org/Graphics/SVG/1.1/DTD/svg11.dtd">
<svg version="1.1" id="圖層_1" xmlns="http://www.w3.org/2000/svg" xmlns:xlink="http://www.w3.org/1999/xlink" x="0px" y="0px"
	 width="184.662px" height="405.465px" viewBox="0 0 184.662 405.465" enable-background="new 0 0 184.662 405.465"
	 xml:space="preserve">
<g>
	<g>
		<path fill="#9C5F68" d="M45.331,132.262v28.131l14.446,16.725c0,0,6.082-2.279,6.082-17.486l2.281-22.047L45.331,132.262z"/>
		<path fill="#9C5F68" d="M59.777,160.393c0,0-23.569-15.967-24.33-21.289c-0.76-5.322-34.213-29.65-28.891-14.445
			c5.321,15.205,22.048,22.049,22.048,22.049s12.925,34.973,24.329,34.213S64.337,165.713,59.777,160.393z"/>
		<polygon fill="#3E3C55" points="73.461,331.458 75.742,345.141 63.578,342.1 63.578,331.458 		"/>
		<path fill="#2F2D40" d="M71.181,339.059c0,0-14.061-8.328-14.633-4.545c-0.574,3.785-6.656,18.23-9.697,19.752
			c-3.041,1.52-6.842,18.246,0,17.486c5.3-0.59,24.738-10.756,33.234-15.311c2.172-1.17,3.049-3.836,1.996-6.066
			c-0.498-0.922-0.842-1.92-1.018-2.953C81.064,345.903,71.181,339.059,71.181,339.059z"/>
		<path fill="#2F2D40" d="M78.023,184.721c0,0-55.501,25.85-50.179,45.617s25.089,103.4,25.089,103.4s22.049,5.32,23.569,0
			c1.521-5.322-14.445-88.193-12.925-91.236c1.521-3.041,29.651-22.809,29.651-22.809l57.782-24.328l-24.33-22.809L78.023,184.721z"
			/>
		<polygon fill="#3E3C55" points="36.207,336.018 29.364,353.506 41.529,358.829 49.132,345.141 		"/>
		<path fill="#9C5F68" d="M77.263,60.034c0,0,6.842,9.123,1.521,13.686c-5.322,4.563-1.521,21.289-1.521,21.289l6.842,19.006
			l27.371-5.322V77.52l-1.521-15.205c0,0-13.686-12.924-15.206-22.809C93.229,29.623,77.263,60.034,77.263,60.034z"/>
		<path opacity="0.1" fill="#040000" enable-background="new    " d="M77.263,60.034c0,0,6.842,9.123,1.521,13.686
			c-5.322,4.563-1.521,21.289-1.521,21.289l6.842,19.006l27.371-5.322V77.52l-1.521-15.205c0,0-13.686-12.924-15.206-22.809
			C93.229,29.623,77.263,60.034,77.263,60.034z"/>
		<path fill="#2F2D40" d="M122.88,178.639c0,0-35.734,39.535-35.734,41.055c0,1.521-19.006,32.693-19.006,32.693l-37.255,82.871
			c0,0,14.446,19.768,20.528,18.248c6.082-1.521,49.418-89.715,49.418-89.715s7.604-19.768,28.131-24.33
			c20.527-4.561,36.494-20.527,28.891-38.773C150.25,182.44,122.88,178.639,122.88,178.639z"/>
		<circle fill="#9C5F68" cx="77.263" cy="41.027" r="24.329"/>
		<path fill="#F2F2F2" d="M78.023,80.561c0,0,3.041,17.488,6.082,19.008c3.041,1.521,5.322,6.844,12.165-0.76S109.195,76,109.195,76
			l23.569,28.891l2.28,79.83c0,0-26.609-6.842-34.973,0c-8.363,6.844-26.61,6.082-26.61,6.082l3.802-15.205l-3.041-25.85
			l0.76-23.568l0.76-16.727L78.023,80.561z"/>
		<path fill="#3E3C55" d="M80.702,67.764c0,0-10.281,5.195-11.042,8.236c-0.76,3.041-14.445,9.123-14.445,9.123
			s-5.322,5.322-5.322,8.363S68.14,131.5,68.14,131.5s3.801,23.57,2.28,28.131c-1.521,4.563,3.041,22.049,3.041,22.049
			l-9.124,10.645h8.363c0,0,9.124-4.563,9.124-6.844c0-2.279-1.521-18.246-2.28-25.088c-0.761-6.844-0.761-31.172,0.76-39.535
			s0.76-30.412,0.76-35.734S80.702,67.764,80.702,67.764z"/>
		<path fill="#3E3C55" d="M104.253,56.221c0,0,3.421,0.771,13.305,3.813s25.09,7.604,30.412,13.686
			c3.734,4.498,7.044,9.334,9.883,14.445l-3.041,54.74c0,0,6.083,11.406,5.322,17.488c-0.76,6.082-6.843,6.842-2.281,19.768
			c4.563,12.924,13.686,24.328,5.322,25.85c-8.363,1.52-30.412-3.803-40.295-0.762c-9.884,3.041-21.289-11.404-21.289-11.404
			s15.207,1.521,12.926-4.561s-27.371-74.508-22.049-89.715C97.791,84.364,104.253,56.221,104.253,56.221z"/>
		<path fill="#3E3C55" d="M53.694,89.686l-3.802,3.041c0,0-10.644,38.014-7.603,41.814c3.041,3.803,27.37,12.166,28.892,6.844
			C72.701,136.063,53.694,89.686,53.694,89.686z"/>
		<path fill="#9C5F68" d="M166.216,116.295c0,0,11.404,32.693,11.404,41.816s-1.521,62.344-1.521,62.344s-0.76,22.809-16.726,13.686
			c-15.967-9.125,0-15.207,0-15.207s-0.761-60.063-6.844-68.426c-6.082-8.363-8.362-20.527-8.362-20.527L166.216,116.295z"/>
		<path fill="#2F2D40" d="M41.529,352.745c0,0-11.403-6.082-13.685-1.52c-2.281,4.561-14.445,29.65-12.925,32.691
			s9.884,15.207,19.768,12.166c9.883-3.043,10.644-19.008,10.644-19.008l0.761-18.248L41.529,352.745z"/>
		<path fill="#2F2D40" d="M72.5,35.15c1.676,0.789,3.664,1.26,4.717,2.785c0.78,1.128,0.857,2.595,1.427,3.845
			c1.29,2.566,4.354,3.688,6.995,2.559c0.312-1.516,1.191-2.854,2.461-3.736c1.314-0.865,3.041-0.771,4.253,0.232
			c1.567,1.494,1.013,4.1,1.743,6.139c0.688,1.434,1.631,2.729,2.787,3.82c1.664,1.92,2.989,4.172,4.993,5.732
			c2.005,1.563,5.044,2.24,7.034,0.66c1.674-1.326,2.021-3.775,1.615-5.873c-0.407-2.098-1.416-4.029-1.984-6.088
			c-1.848-6.692,1.098-13.836,0.188-20.718C107.56,15.688,100.064,8.723,91.699,5.7c-3.481-1.418-7.293-1.822-10.994-1.165
			c-3.826,0.854-7.094,3.29-10.759,4.683c-3.919,1.49-8.179,1.75-12.28,2.621c-4.101,0.871-8.32,2.555-10.7,6.006
			c-1.659,2.407-2.229,5.397-3.605,7.978c-1.583,2.944-4.147,5.242-7.249,6.494l4.335-0.247c-0.727,1.934-1.911,3.665-3.454,5.042
			c2.033,0.414,4.146,0.135,6.001-0.795c-0.067,1.801-0.878,3.495-2.237,4.677c3.336-0.1,6.854-0.254,9.672-2.041
			c1.381-0.874,2.506-2.095,3.806-3.085c2.769-2.115,6.204-3.119,9.554-4.081c1.759-0.505,3.875-1.206,5.466-0.075
			C70.578,32.652,70.787,34.343,72.5,35.15z"/>
		<path fill="#3E3C55" d="M146.449,79.042l11.404,9.123l15.206,34.973c0,0-21.288,16.727-26.61,14.447
			c-5.322-2.281-14.445-42.576-14.445-42.576L146.449,79.042z"/>
		<path fill="#DEAB34" d="M33.089,114.364l-0.191,1.396l-1.178,8.623l-1.929,14.123l-0.482,3.535
			c-0.076,0.559-0.553,0.975-1.117,0.975H15.329c-0.563,0-1.038-0.414-1.115-0.971l-0.492-3.539l-1.961-14.123l-1.199-8.629
			l-0.192-1.389c-0.085-0.615,0.345-1.186,0.96-1.271c0.052-0.006,0.104-0.01,0.156-0.01h20.487c0.623,0,1.127,0.504,1.127,1.127
			C33.099,114.262,33.095,114.313,33.089,114.364z"/>
		<path fill="#EDCA62" d="M34.701,114.956c-8.601,0.938-17.277,0.938-25.878,0c-0.622,0-1.127-0.506-1.127-1.127l0,0v-1.488
			c0-0.623,0.505-1.127,1.127-1.127c8.594,1.057,17.284,1.057,25.878,0c0.622,0,1.127,0.504,1.127,1.127v1.488
			C35.828,114.45,35.323,114.956,34.701,114.956z"/>
		<path fill="#EDCA62" d="M30.321,137.993H13c-0.321,0-0.595-0.234-0.645-0.551l-1.872-11.789c-0.057-0.355,0.187-0.691,0.543-0.748
			c0.034-0.004,0.067-0.008,0.103-0.008h21.188c0.36,0,0.652,0.293,0.652,0.654c0,0.035-0.003,0.072-0.009,0.109l-1.996,11.787
			C30.912,137.762,30.64,137.993,30.321,137.993z"/>
	</g>
	<path fill="#E5E5E4" d="M20.233,106.708L20.233,106.708c-0.89-6-1.125-12.08-0.701-18.131l0.701-10.014l0,0
		C16.367,86.258,17.24,96.385,20.233,106.708z"/>
	<path fill="#E5E5E4" d="M25.795,106.708L25.795,106.708c-0.43-3.58-0.543-7.191-0.338-10.793l0.338-5.959l0,0
		C23.934,94.534,24.355,100.563,25.795,106.708z"/>
</g>
</svg>
